<svg xmlns="http://www.w3.org/2000/svg" xmlns:xlink="http://www.w3.org/1999/xlink" contentStyleType="text/css" data-diagram-type="SEQUENCE" height="415px" preserveAspectRatio="none" style="width:1078px;height:415px;background:#FFFFFF;" version="1.1" viewBox="0 0 1078 415" width="1078px" zoomAndPan="magnify"><defs/><g><g><title>ProfileView</title><rect fill="#FFFFFF" height="203.9297" style="stroke:#181818;stroke-width:1;" width="10" x="194.4907" y="112.4297"/></g><g><title>.ProfileController</title><rect fill="#FFFFFF" height="145.6641" style="stroke:#181818;stroke-width:1;" width="10" x="436.9243" y="141.5625"/></g><g><title>.UserService</title><rect fill="#FFFFFF" height="87.3984" style="stroke:#181818;stroke-width:1;" width="10" x="621.0845" y="170.6953"/></g><g><title>.UserRepo.DB.</title><rect fill="#FFFFFF" height="29.1328" style="stroke:#181818;stroke-width:1;" width="10" x="1008.9282" y="199.8281"/></g><g><title>User</title><rect fill="#000000" fill-opacity="0.00000" height="253.0625" width="8" x="19.9551" y="81.2969"/><line style="stroke:#181818;stroke-width:0.5;stroke-dasharray:5,5;" x1="23" x2="23" y1="81.2969" y2="334.3594"/></g><g><title>ProfileView</title><rect fill="#000000" fill-opacity="0.00000" height="253.0625" width="8" x="195.4907" y="81.2969"/><line style="stroke:#181818;stroke-width:0.5;stroke-dasharray:5,5;" x1="198.6831" x2="198.6831" y1="81.2969" y2="334.3594"/></g><g><title>.ProfileController</title><rect fill="#000000" fill-opacity="0.00000" height="253.0625" width="8" x="437.9243" y="81.2969"/><line style="stroke:#181818;stroke-width:0.5;stroke-dasharray:5,5;" x1="440.937" x2="440.937" y1="81.2969" y2="334.3594"/></g><g><title>.UserService</title><rect fill="#000000" fill-opacity="0.00000" height="253.0625" width="8" x="622.0845" y="81.2969"/><line style="stroke:#181818;stroke-width:0.5;stroke-dasharray:5,5;" x1="625.9004" x2="625.9004" y1="81.2969" y2="334.3594"/></g><g><title>.UserRepo.DB.</title><rect fill="#000000" fill-opacity="0.00000" height="253.0625" width="8" x="1009.9282" y="81.2969"/><line style="stroke:#181818;stroke-width:0.5;stroke-dasharray:5,5;" x1="1013.064" x2="1013.064" y1="81.2969" y2="334.3594"/></g><g class="participant participant-head" data-participant="User"><text fill="#000000" font-family="sans-serif" font-size="14" lengthAdjust="spacing" textLength="31.9102" x="5" y="77.9951">User</text><ellipse cx="23.9551" cy="13.5" fill="#E2E2F0" rx="8" ry="8" style="stroke:#181818;stroke-width:0.5;"/><path d="M23.9551,21.5 L23.9551,48.5 M10.9551,29.5 L36.9551,29.5 M23.9551,48.5 L10.9551,63.5 M23.9551,48.5 L36.9551,63.5" fill="none" style="stroke:#181818;stroke-width:0.5;"/></g><g class="participant participant-tail" data-participant="User"><text fill="#000000" font-family="sans-serif" font-size="14" lengthAdjust="spacing" textLength="31.9102" x="5" y="346.3545">User</text><ellipse cx="23.9551" cy="358.1563" fill="#E2E2F0" rx="8" ry="8" style="stroke:#181818;stroke-width:0.5;"/><path d="M23.9551,366.1563 L23.9551,393.1563 M10.9551,374.1563 L36.9551,374.1563 M23.9551,393.1563 L10.9551,408.1563 M23.9551,393.1563 L36.9551,408.1563" fill="none" style="stroke:#181818;stroke-width:0.5;"/></g><g class="participant participant-head" data-participant="PV"><rect fill="#E2E2F0" height="30.2969" rx="2.5" ry="2.5" style="stroke:#181818;stroke-width:0.5;" width="91.6152" x="153.6831" y="50"/><text fill="#000000" font-family="sans-serif" font-size="14" lengthAdjust="spacing" textLength="77.6152" x="160.6831" y="69.9951">ProfileView</text></g><g class="participant participant-tail" data-participant="PV"><rect fill="#E2E2F0" height="30.2969" rx="2.5" ry="2.5" style="stroke:#181818;stroke-width:0.5;" width="91.6152" x="153.6831" y="333.3594"/><text fill="#000000" font-family="sans-serif" font-size="14" lengthAdjust="spacing" textLength="77.6152" x="160.6831" y="353.3545">ProfileView</text></g><g class="participant participant-head" data-participant="PC"><rect fill="#E2E2F0" height="30.2969" rx="2.5" ry="2.5" style="stroke:#181818;stroke-width:0.5;" width="131.9746" x="375.937" y="50"/><text fill="#000000" font-family="sans-serif" font-size="14" lengthAdjust="spacing" textLength="117.9746" x="382.937" y="69.9951">:ProfileController</text></g><g class="participant participant-tail" data-participant="PC"><rect fill="#E2E2F0" height="30.2969" rx="2.5" ry="2.5" style="stroke:#181818;stroke-width:0.5;" width="131.9746" x="375.937" y="333.3594"/><text fill="#000000" font-family="sans-serif" font-size="14" lengthAdjust="spacing" textLength="117.9746" x="382.937" y="353.3545">:ProfileController</text></g><g class="participant participant-head" data-participant="US"><rect fill="#E2E2F0" height="30.2969" rx="2.5" ry="2.5" style="stroke:#181818;stroke-width:0.5;" width="102.3682" x="574.9004" y="50"/><text fill="#000000" font-family="sans-serif" font-size="14" lengthAdjust="spacing" textLength="88.3682" x="581.9004" y="69.9951">:UserService</text></g><g class="participant participant-tail" data-participant="US"><rect fill="#E2E2F0" height="30.2969" rx="2.5" ry="2.5" style="stroke:#181818;stroke-width:0.5;" width="102.3682" x="574.9004" y="333.3594"/><text fill="#000000" font-family="sans-serif" font-size="14" lengthAdjust="spacing" textLength="88.3682" x="581.9004" y="353.3545">:UserService</text></g><g class="participant participant-head" data-participant="UR"><rect fill="#E2E2F0" height="30.2969" rx="2.5" ry="2.5" style="stroke:#181818;stroke-width:0.5;" width="117.7285" x="955.064" y="50"/><text fill="#000000" font-family="sans-serif" font-size="14" lengthAdjust="spacing" textLength="103.7285" x="962.064" y="69.9951">:UserRepo(DB)</text></g><g class="participant participant-tail" data-participant="UR"><rect fill="#E2E2F0" height="30.2969" rx="2.5" ry="2.5" style="stroke:#181818;stroke-width:0.5;" width="117.7285" x="955.064" y="333.3594"/><text fill="#000000" font-family="sans-serif" font-size="14" lengthAdjust="spacing" textLength="103.7285" x="962.064" y="353.3545">:UserRepo(DB)</text></g><g><title>ProfileView</title><rect fill="#FFFFFF" height="203.9297" style="stroke:#181818;stroke-width:1;" width="10" x="194.4907" y="112.4297"/></g><g><title>.ProfileController</title><rect fill="#FFFFFF" height="145.6641" style="stroke:#181818;stroke-width:1;" width="10" x="436.9243" y="141.5625"/></g><g><title>.UserService</title><rect fill="#FFFFFF" height="87.3984" style="stroke:#181818;stroke-width:1;" width="10" x="621.0845" y="170.6953"/></g><g><title>.UserRepo.DB.</title><rect fill="#FFFFFF" height="29.1328" style="stroke:#181818;stroke-width:1;" width="10" x="1008.9282" y="199.8281"/></g><g class="message" data-participant-1="User" data-participant-2="PV"><polygon fill="#181818" points="182.4907,108.4297,192.4907,112.4297,182.4907,116.4297,186.4907,112.4297" style="stroke:#181818;stroke-width:1;"/><line style="stroke:#181818;stroke-width:1;" x1="23.9551" x2="188.4907" y1="112.4297" y2="112.4297"/><text fill="#000000" font-family="sans-serif" font-size="13" lengthAdjust="spacing" textLength="101.1182" x="30.9551" y="107.3638">1. Open /profile</text></g><g class="message" data-participant-1="PV" data-participant-2="PC"><polygon fill="#181818" points="424.9243,137.5625,434.9243,141.5625,424.9243,145.5625,428.9243,141.5625" style="stroke:#181818;stroke-width:1;"/><line style="stroke:#181818;stroke-width:1;" x1="204.4907" x2="430.9243" y1="141.5625" y2="141.5625"/><text fill="#000000" font-family="sans-serif" font-size="13" lengthAdjust="spacing" textLength="213.4336" x="211.4907" y="136.4966">2. Request profile details(userId)</text></g><g class="message" data-participant-1="PC" data-participant-2="US"><polygon fill="#181818" points="609.0845,166.6953,619.0845,170.6953,609.0845,174.6953,613.0845,170.6953" style="stroke:#181818;stroke-width:1;"/><line style="stroke:#181818;stroke-width:1;" x1="446.9243" x2="615.0845" y1="170.6953" y2="170.6953"/><text fill="#000000" font-family="sans-serif" font-size="13" lengthAdjust="spacing" textLength="149.8364" x="453.9243" y="165.6294">3. Get profile by userId</text></g><g class="message" data-participant-1="US" data-participant-2="UR"><polygon fill="#181818" points="996.9282,195.8281,1006.9282,199.8281,996.9282,203.8281,1000.9282,199.8281" style="stroke:#181818;stroke-width:1;"/><line style="stroke:#181818;stroke-width:1;" x1="631.0845" x2="1002.9282" y1="199.8281" y2="199.8281"/><text fill="#000000" font-family="sans-serif" font-size="13" lengthAdjust="spacing" textLength="179.6768" x="638.0845" y="194.7622">4. Query user data from DB</text></g><g class="message" data-participant-1="UR" data-participant-2="US"><polygon fill="#181818" points="642.0845,224.9609,632.0845,228.9609,642.0845,232.9609,638.0845,228.9609" style="stroke:#181818;stroke-width:1;"/><line style="stroke:#181818;stroke-width:1;stroke-dasharray:2,2;" x1="636.0845" x2="1012.9282" y1="228.9609" y2="228.9609"/><text fill="#000000" font-family="sans-serif" font-size="13" lengthAdjust="spacing" textLength="353.8438" x="648.0845" y="223.895">5. Return user profile(id, name, email, role, avatar, ...)</text></g><g class="message" data-participant-1="US" data-participant-2="PC"><polygon fill="#181818" points="457.9243,254.0938,447.9243,258.0938,457.9243,262.0938,453.9243,258.0938" style="stroke:#181818;stroke-width:1;"/><line style="stroke:#181818;stroke-width:1;stroke-dasharray:2,2;" x1="451.9243" x2="625.0845" y1="258.0938" y2="258.0938"/><text fill="#000000" font-family="sans-serif" font-size="13" lengthAdjust="spacing" textLength="150.1602" x="463.9243" y="253.0278">6. Return profile object</text></g><g class="message" data-participant-1="PC" data-participant-2="PV"><polygon fill="#181818" points="215.4907,283.2266,205.4907,287.2266,215.4907,291.2266,211.4907,287.2266" style="stroke:#181818;stroke-width:1;"/><line style="stroke:#181818;stroke-width:1;stroke-dasharray:2,2;" x1="209.4907" x2="440.9243" y1="287.2266" y2="287.2266"/><text fill="#000000" font-family="sans-serif" font-size="13" lengthAdjust="spacing" textLength="120.9355" x="221.4907" y="282.1606">7. Profile response</text></g><g class="message" data-participant-1="PV" data-participant-2="User"><polygon fill="#181818" points="34.9551,312.3594,24.9551,316.3594,34.9551,320.3594,30.9551,316.3594" style="stroke:#181818;stroke-width:1;"/><line style="stroke:#181818;stroke-width:1;stroke-dasharray:2,2;" x1="28.9551" x2="198.4907" y1="316.3594" y2="316.3594"/><text fill="#000000" font-family="sans-serif" font-size="13" lengthAdjust="spacing" textLength="146.5356" x="40.9551" y="311.2935">8. Display profile page</text></g><!--SRC=[RP4zRuCm54Lt_ughB4qauYhzReOE8LBLgIa8TWTUAbS4kyQaoh-l7KCWLKVmEVTTFryXY-UBP-IIVh0nQYShOgAmoY1ho30jZ9M5rAAsc7Jddfr0DDZab-VB3eXLROsgAZ81Y_zWFZabSv05dO0i_GT8IAlfUZKBHCAO_udvYvkA9HOSxvfgNEkXipm8IxuKSuW7OmVUS2JqtL9ZqQ4eoGfPDTFM1RwLiv4QEpNsQfOwzPRZbGPjUqGm1i4LPmxrGkA4EuwFbapWK0ehi3DgZ_Lgf2JCiVD-nhslPrjJ1wURDPLbX5hiAGBjNTS8RftkGxW8OI9mpcUif77egKT_wOTpQbzURR-ei1TE6YxRR_IHz-yFGurMTKDZ_BIRF1JtJPTuubZBHbVYU9wYnUUbbFy2]--></g></svg>